<svg width="24" height="24" viewBox="0 0 24 24" fill="none" xmlns="http://www.w3.org/2000/svg">
<path d="M14 1C12.3432 1 11 2.34314 11 4V9.00415C11 9.55643 11.4477 10.0042 12 10.0042C12.5523 10.0042 13 9.55643 13 9.00415V4C13 3.44772 13.4477 3 14 3C14.5523 3 15 2.55228 15 2C15 1.44772 14.5523 1 14 1Z" fill="#024F7D"/>
<path d="M20 3C18.3432 3 17 4.34314 17 6V9.00415C17 9.55643 17.4477 10.0042 18 10.0042C18.5523 10.0042 19 9.55643 19 9.00415V6C19 5.44772 19.4477 5 20 5C20.5523 5 21 4.55228 21 4C21 3.44772 20.5523 3 20 3Z" fill="#024F7D"/>
<path d="M7 9.00415V6C7 5.44772 7.44773 5 8 5C8.55228 5 9 4.55228 9 4C9 3.44772 8.55228 3 8 3C6.34317 3 5 4.34314 5 6V9.00415C5 9.55643 5.44772 10.0042 6 10.0042C6.55228 10.0042 7 9.55643 7 9.00415Z" fill="#024F7D"/>
<path d="M2 12C2 11.4477 2.44772 11 3 11H21C21.5523 11 22 11.4477 22 12C22 14.7611 20.8797 17.2625 19.0711 19.071C18.6109 19.5313 18.1059 19.9469 17.5632 20.3108C17.3797 20.4338 17.192 20.551 17.0002 20.6619L17 21.9996C17 22.2649 16.8946 22.5196 16.7071 22.7071C16.5196 22.8946 16.2652 23 16 23H8C7.7342 23 7.47933 22.8942 7.2917 22.7059C7.10406 22.5176 6.9991 22.2624 7.00001 21.9966L7.00452 20.6646C6.81627 20.5559 6.63194 20.4412 6.4518 20.3208C5.90343 19.9545 5.3934 19.5356 4.92895 19.0711C3.12041 17.2625 2 14.7611 2 12Z" fill="#024F7D"/>
</svg>
