<svg width="30" height="30" viewBox="0 0 30 30" fill="none" xmlns="http://www.w3.org/2000/svg">
    <path fill-rule="evenodd" clip-rule="evenodd" d="M5.27729 5.27727C7.7642 2.79039 11.2034 1.25 15 1.25C18.7966 1.25 22.2358 2.79039 24.7227 5.27728L23.8388 6.16116L24.7227 5.27728C27.2096 7.7642 28.75 11.2034 28.75 15C28.75 18.7966 27.2096 22.2358 24.7227 24.7227C22.2358 27.2096 18.7966 28.75 15 28.75C11.2034 28.75 7.7642 27.2096 5.27728 24.7227L6.16116 23.8388L5.27728 24.7227C2.79039 22.2358 1.25 18.7966 1.25 15C1.25 11.2034 2.79039 7.7642 5.27727 5.27729L5.27729 5.27727ZM15 3.75C11.8931 3.75 9.08229 5.00783 7.04504 7.04505C5.00782 9.08231 3.75 11.8931 3.75 15C3.75 18.1069 5.00783 20.9177 7.04505 22.9549C9.0823 24.9922 11.8931 26.25 15 26.25C18.1069 26.25 20.9177 24.9922 22.9549 22.9549C24.9922 20.9177 26.25 18.1069 26.25 15C26.25 11.8931 24.9922 9.0823 22.9549 7.04505C20.9177 5.00783 18.1069 3.75 15 3.75ZM22.1339 10.3661C22.622 10.8543 22.622 11.6457 22.1339 12.1339L14.6339 19.6339C14.1457 20.122 13.3543 20.122 12.8661 19.6339L9.11612 15.8839C8.62796 15.3957 8.62796 14.6043 9.11612 14.1161C9.60427 13.628 10.3957 13.628 10.8839 14.1161L13.75 16.9822L20.3661 10.3661C20.8543 9.87796 21.6457 9.87796 22.1339 10.3661Z" fill="#024F7D"/>
</svg>
