<svg width="24" height="24" viewBox="0 0 24 24" fill="none" xmlns="http://www.w3.org/2000/svg">
<path fill-rule="evenodd" clip-rule="evenodd" d="M5.03176 1.90225C5.2205 1.64912 5.5177 1.5 5.83344 1.5H18.1667C18.4825 1.5 18.7797 1.64912 18.9684 1.90225L21.7935 5.69121C21.8504 5.76527 21.8972 5.84752 21.9317 5.93588C21.9799 6.05885 22.0023 6.18836 22 6.31684V20.4998C22 21.6043 21.1046 22.4998 20 22.4998H4C2.89541 22.4998 2 21.6043 2 20.4998V6.2998C2 6.06787 2.07896 5.85437 2.21147 5.68474L5.03176 1.90225ZM17.665 3.5L19.007 5.2998H4.99323L6.3352 3.5H17.665ZM9.22217 9.6001C9.22217 9.04781 8.77445 8.6001 8.22217 8.6001C7.66988 8.6001 7.22217 9.04781 7.22217 9.6001C7.22217 12.2455 9.35578 14.4001 12 14.4001C14.6442 14.4001 16.7777 12.2455 16.7777 9.6001C16.7777 9.04781 16.33 8.6001 15.7777 8.6001C15.2254 8.6001 14.7777 9.04781 14.7777 9.6001C14.7777 11.152 13.5286 12.4001 12 12.4001C10.4714 12.4001 9.22217 11.152 9.22217 9.6001Z" fill="#024F7D"/>
</svg>
