<svg width="30" height="30" viewBox="0 0 30 30" fill="none" xmlns="http://www.w3.org/2000/svg">
    <path fill-rule="evenodd" clip-rule="evenodd" d="M1.25 15C1.25 7.40608 7.40608 1.25 15 1.25C22.5939 1.25 28.75 7.40608 28.75 15C28.75 22.5939 22.5939 28.75 15 28.75C7.40608 28.75 1.25 22.5939 1.25 15ZM15 3.75C8.78679 3.75 3.75 8.78679 3.75 15C3.75 21.2132 8.78679 26.25 15 26.25C21.2132 26.25 26.25 21.2132 26.25 15C26.25 8.78679 21.2132 3.75 15 3.75ZM15 8.75C15.6904 8.75 16.25 9.30964 16.25 10V13.75H20C20.6904 13.75 21.25 14.3096 21.25 15C21.25 15.6904 20.6904 16.25 20 16.25H16.25V20C16.25 20.6904 15.6904 21.25 15 21.25C14.3096 21.25 13.75 20.6904 13.75 20V16.25H10C9.30964 16.25 8.75 15.6904 8.75 15C8.75 14.3096 9.30964 13.75 10 13.75H13.75V10C13.75 9.30964 14.3096 8.75 15 8.75Z" fill="#00639E"/>
</svg>
