<svg width="150" height="150" viewBox="0 0 150 150" fill="none" xmlns="http://www.w3.org/2000/svg">
    <path d="M81.25 12.5C81.25 9.04822 78.4518 6.25 75 6.25C71.5482 6.25 68.75 9.04822 68.75 12.5V25C68.75 28.4518 71.5482 31.25 75 31.25C78.4518 31.25 81.25 28.4518 81.25 25V12.5Z" fill="#024F7D"/>
    <path d="M111.663 23.9991C113.389 21.0097 112.364 17.1873 109.375 15.4614C106.386 13.7355 102.563 14.7597 100.837 17.749L94.5874 28.5742C92.8614 31.5635 93.8857 35.3859 96.875 37.1119C99.8643 38.8378 103.687 37.8136 105.413 34.8242L111.663 23.9991Z" fill="#024F7D"/>
    <path d="M134.539 40.625C136.265 43.6143 135.241 47.4368 132.252 49.1627L121.426 55.4127C118.437 57.1386 114.615 56.1143 112.889 53.125C111.163 50.1357 112.187 46.3132 115.176 44.5873L126.002 38.3373C128.991 36.6114 132.813 37.6357 134.539 40.625Z" fill="#024F7D"/>
    <path d="M125 68.75C121.548 68.75 118.75 71.5482 118.75 75C118.75 78.4518 121.548 81.25 125 81.25H137.5C140.952 81.25 143.75 78.4518 143.75 75C143.75 71.5482 140.952 68.75 137.5 68.75H125Z" fill="#024F7D"/>
    <path d="M112.889 96.875C114.615 93.8857 118.437 92.8614 121.426 94.5873L132.252 100.837C135.241 102.563 136.265 106.386 134.539 109.375C132.813 112.364 128.991 113.389 126.002 111.663L115.176 105.413C112.187 103.687 111.163 99.8643 112.889 96.875Z" fill="#024F7D"/>
    <path d="M105.413 115.176C103.687 112.187 99.8643 111.163 96.875 112.889C93.8857 114.615 92.8614 118.437 94.5873 121.426L100.837 132.252C102.563 135.241 106.386 136.265 109.375 134.539C112.364 132.813 113.389 128.991 111.663 126.002L105.413 115.176Z" fill="#024F7D"/>
    <path d="M75 118.75C78.4518 118.75 81.25 121.548 81.25 125V137.5C81.25 140.952 78.4518 143.75 75 143.75C71.5482 143.75 68.75 140.952 68.75 137.5V125C68.75 121.548 71.5482 118.75 75 118.75Z" fill="#024F7D"/>
    <path d="M55.4127 121.426C57.1386 118.437 56.1143 114.615 53.125 112.889C50.1357 111.163 46.3132 112.187 44.5873 115.176L38.3373 126.002C36.6114 128.991 37.6357 132.813 40.625 134.539C43.6143 136.265 47.4368 135.241 49.1627 132.252L55.4127 121.426Z" fill="#024F7D"/>
    <path d="M37.1111 96.875C38.837 99.8643 37.8128 103.687 34.8235 105.413L23.9983 111.663C21.009 113.389 17.1865 112.364 15.4606 109.375C13.7347 106.386 14.7589 102.563 17.7482 100.837L28.5734 94.5874C31.5627 92.8614 35.3852 93.8857 37.1111 96.875Z" fill="#024F7D"/>
    <path d="M12.5 68.75C9.04822 68.75 6.25 71.5482 6.25 75C6.25 78.4518 9.04822 81.25 12.5 81.25H25C28.4518 81.25 31.25 78.4518 31.25 75C31.25 71.5482 28.4518 68.75 25 68.75H12.5Z" fill="#024F7D"/>
    <path d="M15.4606 40.625C17.1865 37.6357 21.009 36.6115 23.9983 38.3374L34.8235 44.5874C37.8128 46.3133 38.837 50.1357 37.1111 53.125C35.3852 56.1143 31.5627 57.1386 28.5734 55.4126L17.7482 49.1626C14.7589 47.4367 13.7347 43.6143 15.4606 40.625Z" fill="#024F7D"/>
    <path d="M49.1626 17.749C47.4367 14.7597 43.6143 13.7355 40.625 15.4614C37.6357 17.1873 36.6115 21.0097 38.3374 23.9991L44.5874 34.8242C46.3133 37.8136 50.1357 38.8378 53.125 37.1119C56.1143 35.3859 57.1386 31.5635 55.4126 28.5742L49.1626 17.749Z" fill="#024F7D"/>
</svg>
